<?xml version="1.0" standalone="no"?>
<!DOCTYPE svg PUBLIC "-//W3C//DTD SVG 20010904//EN"
 "http://www.w3.org/TR/2001/REC-SVG-20010904/DTD/svg10.dtd">
<svg version="1.0" xmlns="http://www.w3.org/2000/svg"
 width="500.000000pt" height="500.000000pt" viewBox="0 0 500.000000 500.000000"
 preserveAspectRatio="xMidYMid meet">

<g transform="translate(0.000000,500.000000) scale(0.100000,-0.100000)"
fill="#000000" stroke="none">
<path d="M2260 4304 c-73 -9 -269 -58 -365 -91 -586 -203 -1051 -735 -1175
-1345 -49 -239 -47 -531 6 -767 148 -661 657 -1191 1306 -1360 160 -41 183
-44 198 -26 7 9 11 17 9 18 -2 2 -51 13 -109 26 -341 74 -632 232 -881 481
-284 283 -454 621 -510 1015 -16 114 -16 373 0 490 58 412 268 803 581 1083
526 470 1301 581 1945 278 349 -164 637 -446 820 -799 80 -155 153 -375 171
-513 4 -37 14 -62 27 -75 11 -10 22 -17 24 -15 3 2 -3 48 -12 102 -96 561
-463 1059 -968 1311 -143 71 -257 113 -422 155 -115 28 -131 30 -365 33 -135
2 -261 1 -280 -1z"/>
<path d="M1910 2439 l0 -750 378 3 c408 5 427 7 550 65 78 37 170 131 210 214
54 114 73 212 79 414 11 412 -82 643 -301 746 -114 53 -165 59 -558 59 l-358
0 0 -751z m728 586 c159 -38 238 -123 279 -305 25 -107 24 -465 0 -563 -40
-159 -112 -248 -233 -288 -63 -20 -93 -23 -321 -27 l-253 -4 0 601 0 601 233
0 c169 0 249 -4 295 -15z"/>
<path d="M4150 2420 c0 -64 3 -80 15 -80 11 0 15 12 15 50 0 28 4 50 8 50 4 0
37 -25 72 -55 36 -30 71 -55 78 -55 8 0 12 16 12 49 0 27 3 63 6 80 6 27 4 31
-15 31 -19 0 -21 -6 -21 -50 0 -27 -3 -50 -6 -50 -3 0 -36 25 -72 55 -37 30
-72 55 -79 55 -10 0 -13 -22 -13 -80z"/>
<path d="M4121 2154 c-7 -37 -10 -68 -8 -70 2 -3 47 -13 100 -23 l95 -18 11
55 c15 74 14 92 -4 92 -9 0 -17 -14 -21 -39 -8 -52 -17 -64 -42 -56 -19 5 -21
11 -15 51 5 36 3 44 -10 44 -10 0 -18 -13 -22 -40 -6 -34 -11 -40 -31 -40 -26
0 -28 7 -15 62 8 34 1 48 -24 48 -2 0 -8 -30 -14 -66z"/>
<path d="M4068 1913 c-15 -18 -51 -103 -46 -108 7 -5 180 -65 189 -65 22 0 8
38 -17 44 -19 5 -25 12 -22 29 2 13 11 23 23 25 51 7 63 13 68 32 5 18 2 19
-34 14 -34 -6 -42 -3 -60 20 -25 31 -78 36 -101 9z m71 -37 c8 -10 8 -21 1
-40 -8 -22 -14 -26 -33 -21 -34 11 -39 19 -28 48 11 29 41 36 60 13z"/>
<path d="M3924 1616 c-6 -15 22 -57 100 -151 21 -25 27 -28 35 -15 7 10 6 22
-5 37 -13 20 -13 26 1 53 13 25 21 30 47 28 23 -2 33 2 36 13 2 13 -10 19 -60
28 -145 24 -147 25 -154 7z m94 -32 c26 -7 27 -13 9 -38 -13 -18 -15 -17 -36
13 -23 32 -18 37 27 25z"/>
<path d="M3791 1426 c-9 -11 -1 -23 39 -56 53 -44 70 -81 50 -105 -22 -26 -61
-17 -113 26 -42 36 -51 40 -63 27 -13 -12 -7 -20 43 -61 73 -59 117 -64 157
-16 38 45 33 72 -21 130 -58 62 -77 73 -92 55z"/>
<path d="M3572 1198 c-8 -10 0 -26 34 -67 49 -59 54 -83 23 -105 -21 -15 -18
-36 5 -36 21 0 56 45 56 72 0 15 -19 50 -46 84 -50 66 -56 70 -72 52z"/>
<path d="M3222 971 c-20 -12 71 -193 93 -185 8 4 15 10 15 15 0 13 -83 179
-90 179 -3 0 -11 -4 -18 -9z"/>
<path d="M2973 872 c-16 -10 42 -192 61 -192 18 0 110 31 121 41 5 6 5 13 -1
19 -7 7 -24 5 -54 -5 -24 -8 -46 -12 -50 -8 -3 5 -16 41 -29 81 -22 73 -26 78
-48 64z"/>
<path d="M2743 822 c-14 -9 -60 -199 -50 -208 12 -12 37 6 37 26 0 21 4 24 51
34 21 5 28 1 37 -19 10 -22 52 -37 52 -19 0 9 -105 194 -110 194 -3 0 -11 -4
-17 -8z m32 -82 c20 -38 19 -40 -11 -40 -22 0 -25 3 -20 23 3 12 6 28 6 35 0
20 8 14 25 -18z"/>
<path d="M2370 705 l0 -107 60 4 c39 3 66 11 80 23 42 38 42 117 0 159 -13 14
-37 21 -80 24 l-60 4 0 -107z m114 52 c20 -15 24 -63 7 -95 -9 -16 -21 -22
-46 -22 l-35 0 0 65 c0 65 0 65 28 65 16 0 36 -6 46 -13z"/>
</g>
</svg>
